<svg width="54" height="54" viewBox="0 0 54 54" fill="none" xmlns="http://www.w3.org/2000/svg">
<path d="M44.5833 4.45825C45.8138 4.45825 46.8125 5.45692 46.8125 6.68742V15.0624L26.7522 35.1249L26.7389 44.5721L36.2039 44.5855L46.8125 33.9769V46.8124C46.8125 48.0429 45.8138 49.0416 44.5833 49.0416H8.91667C7.68617 49.0416 6.6875 48.0429 6.6875 46.8124V6.68742C6.6875 5.45692 7.68617 4.45825 8.91667 4.45825H44.5833ZM48.5468 19.6344L51.6988 22.7865L34.3604 40.1249L31.2039 40.1205L31.2083 36.9729L48.5468 19.6344ZM26.75 26.7499H15.6042V31.2083H26.75V26.7499ZM33.4375 17.8333H15.6042V22.2916H33.4375V17.8333Z" fill="white"/>
</svg>
