<svg width="34" height="18" viewBox="0 0 34 18" fill="none" xmlns="http://www.w3.org/2000/svg">
<path fill-rule="evenodd" clip-rule="evenodd" d="M33.6159 17.3072C33.4944 17.4201 33.3501 17.5097 33.1913 17.5708C33.0324 17.6319 32.8621 17.6633 32.6901 17.6633C32.5181 17.6633 32.3478 17.6319 32.189 17.5708C32.0301 17.5097 31.8858 17.4201 31.7644 17.3072L16.9997 3.61635L2.23493 17.3072C2.11336 17.4199 1.96903 17.5093 1.81019 17.5703C1.65136 17.6313 1.48111 17.6627 1.30919 17.6627C1.13726 17.6627 0.967021 17.6313 0.808182 17.5703C0.649344 17.5093 0.50502 17.4199 0.383451 17.3072C0.261881 17.1945 0.165447 17.0607 0.0996536 16.9134C0.0338606 16.7662 -1.43974e-06 16.6083 -1.43974e-06 16.4489C-1.43974e-06 16.2895 0.0338606 16.1317 0.0996536 15.9845C0.165447 15.8372 0.261881 15.7034 0.383451 15.5907L16.0739 1.04401C16.1954 0.931118 16.3397 0.841553 16.4985 0.780441C16.6574 0.71933 16.8277 0.687873 16.9997 0.687873C17.1716 0.687873 17.3419 0.71933 17.5008 0.780441C17.6596 0.841553 17.8039 0.931118 17.9254 1.04401L33.6159 15.5907C33.7376 15.7033 33.8342 15.8371 33.9002 15.9843C33.9661 16.1316 34 16.2895 34 16.4489C34 16.6084 33.9661 16.7663 33.9002 16.9135C33.8342 17.0608 33.7376 17.1946 33.6159 17.3072V17.3072Z" fill="white"/>
</svg>
