<svg width="40" height="43" viewBox="0 0 40 43" fill="none" xmlns="http://www.w3.org/2000/svg">
<path fill-rule="evenodd" clip-rule="evenodd" d="M39.368 0.201248C39.5611 0.321634 39.7206 0.489742 39.8312 0.689633C39.9418 0.889524 39.9999 1.11457 40 1.34344V41.6562C40 42.0126 39.8595 42.3544 39.6095 42.6064C39.3594 42.8584 39.0203 43 38.6667 43H30.6667C30.313 43 29.9739 42.8584 29.7239 42.6064C29.4738 42.3544 29.3333 42.0126 29.3333 41.6562V37.625H26.6667V41.6562C26.6667 42.0126 26.5262 42.3544 26.2761 42.6064C26.0261 42.8584 25.687 43 25.3333 43H1.33333C0.979711 43 0.640573 42.8584 0.390524 42.6064C0.140476 42.3544 0 42.0126 0 41.6562V26.8749C0.000212391 26.593 0.0883949 26.3183 0.252067 26.0896C0.415738 25.861 0.646608 25.6901 0.912 25.601L16 20.5323V12.0935C16 11.8442 16.0689 11.5998 16.1988 11.3876C16.3288 11.1754 16.5148 11.0039 16.736 10.8922L38.0693 0.142123C38.2728 0.039475 38.499 -0.00898009 38.7263 0.00136924C38.9536 0.0117186 39.1745 0.0805279 39.368 0.201248ZM16 23.365L2.66667 27.8424V40.3125H16V23.365ZM18.6667 40.3125H24V36.2812C24 35.9248 24.1405 35.583 24.3905 35.331C24.6406 35.079 24.9797 34.9374 25.3333 34.9374H30.6667C31.0203 34.9374 31.3594 35.079 31.6095 35.331C31.8595 35.583 32 35.9248 32 36.2812V40.3125H37.3333V3.51765L18.6667 12.924V40.3125Z" fill="white"/>
<path d="M5.3335 29.5622H8.00016V32.2497H5.3335V29.5622ZM10.6668 29.5622H13.3335V32.2497H10.6668V29.5622ZM5.3335 34.9372H8.00016V37.6247H5.3335V34.9372ZM10.6668 34.9372H13.3335V37.6247H10.6668V34.9372ZM21.3335 24.1871H24.0002V26.8747H21.3335V24.1871ZM26.6668 24.1871H29.3335V26.8747H26.6668V24.1871ZM21.3335 29.5622H24.0002V32.2497H21.3335V29.5622ZM26.6668 29.5622H29.3335V32.2497H26.6668V29.5622ZM32.0002 24.1871H34.6668V26.8747H32.0002V24.1871ZM32.0002 29.5622H34.6668V32.2497H32.0002V29.5622ZM21.3335 18.8121H24.0002V21.4996H21.3335V18.8121ZM26.6668 18.8121H29.3335V21.4996H26.6668V18.8121ZM32.0002 18.8121H34.6668V21.4996H32.0002V18.8121ZM21.3335 13.4371H24.0002V16.1246H21.3335V13.4371ZM26.6668 13.4371H29.3335V16.1246H26.6668V13.4371ZM32.0002 13.4371H34.6668V16.1246H32.0002V13.4371ZM32.0002 8.06201H34.6668V10.7495H32.0002V8.06201Z" fill="white"/>
</svg>
