<svg width="21" height="21" viewBox="0 0 21 21" fill="none" xmlns="http://www.w3.org/2000/svg">
<path d="M14.6806 20.9997C14.9987 21.0003 15.3121 20.9239 15.5929 20.7771C15.8737 20.6304 16.1133 20.4179 16.2902 20.1585C16.4672 19.8992 16.5762 19.6009 16.6074 19.2903C16.6387 18.9797 16.5913 18.6663 16.4695 18.378C16.3476 18.0896 16.1551 17.8353 15.909 17.6375C15.6629 17.4397 15.3708 17.3046 15.0587 17.2441C14.7465 17.1837 14.424 17.1998 14.1198 17.291C13.8155 17.3823 13.5389 17.5458 13.3146 17.7671C13.0456 18.0324 12.8627 18.3698 12.7888 18.7369C12.715 19.104 12.7535 19.4843 12.8996 19.83C13.0456 20.1756 13.2927 20.4712 13.6096 20.6793C13.9266 20.8875 14.2992 20.9989 14.6806 20.9997ZM3.96482 20.9997C4.40881 20.9978 4.83839 20.845 5.1805 20.5674C5.5226 20.2897 5.75609 19.9044 5.84123 19.4768C5.92637 19.0493 5.8579 18.6061 5.64748 18.2225C5.43706 17.839 5.09769 17.5388 4.68709 17.3731C4.2765 17.2073 3.82006 17.1863 3.39543 17.3135C2.97081 17.4407 2.60422 17.7083 2.35806 18.0708C2.11189 18.4333 2.00134 18.8683 2.04523 19.3018C2.08912 19.7352 2.28473 20.1404 2.59878 20.4483C2.776 20.6269 2.98864 20.768 3.22359 20.8628C3.45854 20.9576 3.71081 21.0042 3.96482 20.9997ZM16.0735 3.65298L13.1272 9.64595H5.40983L2.0611 3.65298H16.0735ZM16.8775 2.07623H1.09832C0.687782 2.07623 0.375256 2.26031 0.160744 2.62847C0.055685 2.79407 0 2.98523 0 3.18029C0 3.37534 0.055685 3.5665 0.160744 3.73211L3.77748 10.1191C3.964 10.4415 4.22569 10.716 4.54115 10.9202C4.84623 11.1198 5.20528 11.2252 5.57198 11.2227H13.6892L15.1897 13.9558H2.8399C2.73432 13.9558 2.62977 13.9762 2.53222 14.0159C2.43468 14.0555 2.34604 14.1136 2.27138 14.1869C2.19673 14.2601 2.13751 14.3471 2.0971 14.4428C2.0567 14.5385 2.0359 14.641 2.0359 14.7446C2.0359 14.8482 2.0567 14.9508 2.0971 15.0465C2.13751 15.1422 2.19673 15.2291 2.27138 15.3024C2.34604 15.3756 2.43468 15.4337 2.53222 15.4734C2.62977 15.513 2.73432 15.5334 2.8399 15.5334H14.9486C15.6985 15.5334 16.2387 15.2881 16.5692 14.7974C16.8996 14.3067 16.8952 13.7547 16.5557 13.1415L14.8411 10.0399L18.9131 1.57675H20.196C20.4091 1.57675 20.6135 1.49376 20.7642 1.34601C20.915 1.19826 20.9998 0.997844 21 0.788787C21 0.579588 20.9153 0.378956 20.7645 0.23103C20.6137 0.0831033 20.4092 2.69069e-08 20.196 2.69069e-08H18.6645C18.4266 -4.88362e-05 18.1936 0.066455 17.9928 0.191712C17.7921 0.316969 17.6319 0.495785 17.5311 0.707187L16.8775 2.07623Z" fill="white"/>
</svg>
