<svg id="Layer_1" data-name="Layer 1" xmlns="http://www.w3.org/2000/svg" viewBox="0 0 168.63 19.21"><defs><style>.cls-1{fill:#062f33;}.cls-2{fill:#82b5c0;}.cls-3{fill:#f4f2f0;}.cls-4{opacity:0.4;}</style></defs><path class="cls-1" d="M168.57,8.49a9.61,9.61,0,0,1-17.84,6,5.69,5.69,0,0,0-4.94-2.73H122.45a5.69,5.69,0,0,0-4.94,2.73,9.61,9.61,0,0,1-16.58,0A5.69,5.69,0,0,0,96,11.73H72.65a5.69,5.69,0,0,0-4.94,2.73,9.61,9.61,0,0,1-16.58,0,5.71,5.71,0,0,0-4.94-2.74H22.83a6,6,0,0,0-5.07,2.95,9.6,9.6,0,1,1,.13-9.94,5.69,5.69,0,0,0,4.94,2.73H46.19a5.69,5.69,0,0,0,4.94-2.73,9.61,9.61,0,0,1,16.57,0,5.69,5.69,0,0,0,4.94,2.73H96a5.69,5.69,0,0,0,4.94-2.73,9.61,9.61,0,0,1,16.57,0,5.69,5.69,0,0,0,4.94,2.73H145.8a6,6,0,0,0,5.08-2.95,9.6,9.6,0,0,1,17.69,4Z"/><circle class="cls-2" cx="9.61" cy="9.6" r="6.31"/><path class="cls-3" d="M10.8,13.16H9v-5l-1.59.43V7.17l3.19-1.12h.16Z"/><circle class="cls-2" cx="59.41" cy="9.6" r="6.31"/><path class="cls-3" d="M62,13.21H57V12l2.28-2.36a6.34,6.34,0,0,0,.47-.57A2.42,2.42,0,0,0,60,8.62a.91.91,0,0,0,.09-.37,1,1,0,0,0-.19-.63.64.64,0,0,0-.52-.2.62.62,0,0,0-.4.13.85.85,0,0,0-.27.37,1.38,1.38,0,0,0-.09.52H56.83a2.4,2.4,0,0,1,1.23-2.11A2.7,2.7,0,0,1,59.41,6a2.61,2.61,0,0,1,1.81.55,2,2,0,0,1,.61,1.54,2.32,2.32,0,0,1-.2,1A4.52,4.52,0,0,1,61,10c-.26.31-.57.65-.94,1l-.81.81H62Z"/><g class="cls-4"><circle class="cls-2" cx="109.22" cy="9.6" r="6.31"/><path class="cls-3" d="M108.33,9.31h1.12a4.08,4.08,0,0,1,1,.11,2.53,2.53,0,0,1,.76.35,1.5,1.5,0,0,1,.49.57,1.8,1.8,0,0,1,.17.82,1.84,1.84,0,0,1-.35,1.14,2.21,2.21,0,0,1-1,.71,3.57,3.57,0,0,1-1.38.25,3.46,3.46,0,0,1-.89-.12,2.65,2.65,0,0,1-.82-.37,1.85,1.85,0,0,1-.59-.65,1.88,1.88,0,0,1-.23-.95h1.77a.52.52,0,0,0,.12.33.68.68,0,0,0,.3.25.9.9,0,0,0,.4.09.88.88,0,0,0,.65-.22.68.68,0,0,0,.24-.51,1.13,1.13,0,0,0-.11-.53.67.67,0,0,0-.32-.28,1.28,1.28,0,0,0-.5-.09h-.82Zm.82-.46a1,1,0,0,0,.46-.09.66.66,0,0,0,.27-.28A1,1,0,0,0,110,8a.59.59,0,0,0-.08-.32.57.57,0,0,0-.25-.26.91.91,0,0,0-.43-.09,1,1,0,0,0-.34.06.78.78,0,0,0-.28.17.41.41,0,0,0-.11.28h-1.76a1.69,1.69,0,0,1,.34-1,2.23,2.23,0,0,1,.9-.65A3.08,3.08,0,0,1,109.14,6a3.74,3.74,0,0,1,1.35.23,2.07,2.07,0,0,1,.91.69A1.86,1.86,0,0,1,111.73,8a1.44,1.44,0,0,1-.18.71,1.69,1.69,0,0,1-.48.56,2.47,2.47,0,0,1-.72.38,2.92,2.92,0,0,1-.9.13h-1.12V8.85Z"/></g><g class="cls-4"><circle class="cls-2" cx="159.03" cy="9.6" r="6.31"/><path class="cls-3" d="M161.65,11.7h-5.14l-.1-1.14,2.81-4.51h1.39l-1.48,2.53-1.06,1.7h3.58ZM161,13.16h-1.76V6.05H161Z"/></g></svg>