<svg id="Layer_1" data-name="Layer 1" xmlns="http://www.w3.org/2000/svg" viewBox="0 0 36.7 36.7"><path d="M36.65,16l0-.06a2.73,2.73,0,0,0-2.51-2c-.55-.06-1.1-.14-1.65-.21l-.62-.05q-.16-.45-.36-.9a3.21,3.21,0,0,0-.31-.59L32,11.11l.69-.9a2.71,2.71,0,0,0-.26-3.74L30.26,4.3a2.73,2.73,0,0,0-3.85-.22L26,4.43,24.56,5.51A14.72,14.72,0,0,0,23,4.89l-.12-1c-.06-.46-.12-.92-.17-1.38A2.73,2.73,0,0,0,20,0H16.7A2.76,2.76,0,0,0,14,2.52c0,.5-.11,1-.18,1.48l-.1.89c-.51.18-1,.4-1.53.63C11.55,5,11,4.58,10.28,4.07a2.69,2.69,0,0,0-3.84.24l-2.1,2.1a2.72,2.72,0,0,0-.23,3.93l.43.56.72.92.25.32-.15.34c-.17.39-.34.78-.49,1.19l-1.11.13L2.49,14A2.75,2.75,0,0,0,0,16.71V20a2.77,2.77,0,0,0,2.55,2.78c.53,0,1.07.12,1.6.19l.73.07c.1.29.22.58.35.87a3.57,3.57,0,0,0,.31.62c-.29.39-.59.78-.89,1.16l-.61.8a2.71,2.71,0,0,0,.24,3.76c.47.49,1,1,1.43,1.44l.66.66a2.74,2.74,0,0,0,4,.23l.16-.12,1.57-1.25c.25.09.49.2.73.3a5.14,5.14,0,0,0,.82.3l.24,2a2.88,2.88,0,0,0,.8,2,4.74,4.74,0,0,0,.93.6l.37.2.12.07h4.46l.12-.06.36-.2a4.23,4.23,0,0,0,.91-.58,2.94,2.94,0,0,0,.84-2.08v-.12c.05-.48.11-.95.17-1.42l0-.41.88-.35a3.57,3.57,0,0,0,.62-.31c.45.33.89.67,1.33,1l.59.47a2.72,2.72,0,0,0,3.82-.24c.73-.72,1.46-1.45,2.18-2.18a2.72,2.72,0,0,0,.24-3.76c-.48-.64-1-1.26-1.48-1.91.25-.54.45-1,.63-1.52l1.08-.13q.62-.09,1.23-.15a2.74,2.74,0,0,0,2.47-2h0l.09-.13V16.26Zm-18.3,7.75h0a5.45,5.45,0,0,1-5.42-5.44,5.41,5.41,0,0,1,5.45-5.43h0a5.44,5.44,0,0,1,0,10.87Z"/></svg>