<svg id="Layer_1" data-name="Layer 1" xmlns="http://www.w3.org/2000/svg" viewBox="0 0 36.7 36.7"><path d="M36.65,16l0-.06a2.71,2.71,0,0,0-2.51-2c-.55-.06-1.1-.14-1.65-.21l-.61-.05c-.11-.3-.24-.6-.36-.9a3.21,3.21,0,0,0-.31-.59c.27-.37.55-.73.84-1.09l.69-.9a2.72,2.72,0,0,0-.26-3.74L30.26,4.3a2.73,2.73,0,0,0-3.85-.22L26,4.43,24.56,5.51A14.72,14.72,0,0,0,23,4.89l-.13-1c-.05-.46-.11-.92-.16-1.38A2.73,2.73,0,0,0,20,0H16.7A2.76,2.76,0,0,0,14,2.52c0,.5-.12,1-.18,1.48l-.1.89c-.51.18-1,.4-1.53.63-.59-.48-1.2-.94-1.86-1.45a2.71,2.71,0,0,0-3.85.24L4.34,6.41a2.71,2.71,0,0,0-.23,3.93l.43.56c.31.41.63.81,1,1.24-.23.5-.44,1-.64,1.53l-1.11.13L2.48,14A2.75,2.75,0,0,0,0,16.71V20a2.76,2.76,0,0,0,2.54,2.78c.54,0,1.07.12,1.61.19l.72.07c.11.29.23.58.35.87a3.55,3.55,0,0,0,.32.62c-.29.39-.59.78-.89,1.16l-.62.8a2.73,2.73,0,0,0,.24,3.76l1.44,1.44.66.66a2.74,2.74,0,0,0,4,.23l.15-.12c.55-.43,1.1-.86,1.57-1.25.25.09.5.2.74.3a5.14,5.14,0,0,0,.82.3l.24,2a2.88,2.88,0,0,0,.8,2,4.46,4.46,0,0,0,.93.6l.37.2.12.07h4.46l.11-.06.37-.2a4.23,4.23,0,0,0,.91-.58,2.89,2.89,0,0,0,.83-2.08l0-.12c.05-.48.11-.95.17-1.42l0-.41.88-.35a3.57,3.57,0,0,0,.62-.31c.45.33.89.67,1.33,1l.59.47a2.72,2.72,0,0,0,3.82-.24c.73-.72,1.45-1.45,2.18-2.18a2.73,2.73,0,0,0,.24-3.76c-.48-.64-1-1.26-1.48-1.91.25-.54.45-1,.63-1.52l1.08-.13q.62-.09,1.23-.15a2.74,2.74,0,0,0,2.47-2h0l.09-.13V16.26Zm-7,5.59c-.28.74-.61,1.54-1,2.43a1.34,1.34,0,0,0,.17,1.51L30.65,28c.21.27.21.3,0,.54l-2.14,2.14c-.23.22-.26.23-.51,0l-.37-.29c-.68-.52-1.35-1-2-1.57A1.4,1.4,0,0,0,24,28.66c-.75.34-1.56.68-2.41,1a1.38,1.38,0,0,0-1,1.21c-.12,1-.26,2.07-.4,3.1,0,.22-.1.22-.23.23-1.11,0-2.23,0-3.34,0-.11,0-.18,0-.21-.21-.14-1-.28-2.06-.4-3.09a1.4,1.4,0,0,0-1-1.24c-.77-.29-1.56-.62-2.44-1a1.57,1.57,0,0,0-.65-.15,1.39,1.39,0,0,0-.86.32c-.79.63-1.59,1.24-2.39,1.86-.27.2-.3.2-.53,0L6.06,28.48c-.22-.23-.22-.25,0-.5l.2-.27,1.65-2.12A1.38,1.38,0,0,0,8.06,24c-.39-.86-.72-1.64-1-2.4a1.43,1.43,0,0,0-1.27-1c-1-.12-2-.26-3-.4-.22,0-.23-.09-.23-.23q0-1.65,0-3.3c0-.15,0-.21.25-.25,1-.14,2-.28,3.05-.4a1.39,1.39,0,0,0,1.24-1c.3-.78.62-1.56,1-2.4a1.39,1.39,0,0,0-.16-1.55C7.27,10.34,6.66,9.54,6,8.74c-.2-.26-.21-.28,0-.53l.36-.36c.6-.61,1.2-1.21,1.81-1.8a1,1,0,0,1,.22-.15A1.22,1.22,0,0,1,8.73,6l2.42,1.87a1.35,1.35,0,0,0,1.48.17c.84-.38,1.67-.73,2.47-1a1.4,1.4,0,0,0,1-1.22c.12-1,.26-2.06.4-3.09,0-.22.1-.23.23-.23q1.65,0,3.3,0c.15,0,.21,0,.25.25.14,1,.28,2,.4,3.06a1.4,1.4,0,0,0,1,1.24c.77.28,1.56.62,2.44,1a1.37,1.37,0,0,0,1.51-.17l1.92-1.49L28,6.05c.26-.21.29-.21.53,0,.72.71,1.43,1.43,2.14,2.14.23.23.23.26,0,.51L30.5,9c-.56.73-1.12,1.45-1.69,2.17a1.38,1.38,0,0,0-.17,1.54c.38.85.71,1.65,1,2.43a1.42,1.42,0,0,0,1.25,1c1,.11,2,.25,3.06.4.22,0,.23.08.23.22,0,1.11,0,2.23,0,3.34,0,.12,0,.18-.21.21-1,.15-2.06.28-3.1.4A1.42,1.42,0,0,0,29.64,21.63Z"/><path d="M18.35,10.4h0a8,8,0,0,0,0,15.91h0a8,8,0,0,0,0-15.91Zm5.43,8a5.44,5.44,0,0,1-5.44,5.42h0a5.45,5.45,0,0,1-5.42-5.44,5.41,5.41,0,0,1,5.44-5.43h0A5.43,5.43,0,0,1,23.78,18.37Z"/></svg>