<svg id="Layer_1" data-name="Layer 1" xmlns="http://www.w3.org/2000/svg" viewBox="0 0 39.2 39.95"><defs><style>.cls-1{fill:#010101;}</style></defs><path class="cls-1" d="M11.8,40a3.6,3.6,0,1,1,0-7.2,3.6,3.6,0,1,1,0,7.2Zm20,0a3.59,3.59,0,1,1,2.55-1.05A3.47,3.47,0,0,1,31.8,40ZM9.2,7l5.5,11.4H29.1L35.35,7ZM7.7,4H37.15A1.9,1.9,0,0,1,38.9,5a2,2,0,0,1,0,2.1L32.15,19.25a4.51,4.51,0,0,1-1.42,1.52,3.42,3.42,0,0,1-1.93.58H13.65l-2.8,5.2H35.4v3H11.3a3.35,3.35,0,0,1-3-1.4A2.88,2.88,0,0,1,8.3,25l3.2-5.9L3.9,3H0V0H5.85Zm7,14.4h0Z"/></svg>